<svg width="8" height="4" viewBox="0 0 8 4" fill="none" xmlns="http://www.w3.org/2000/svg">
<path fill-rule="evenodd" clip-rule="evenodd" d="M0.579087 0.0839177C0.604094 0.0573169 0.6338 0.0362121 0.666505 0.021812C0.69921 0.00741204 0.734271 0 0.76968 0C0.805089 0 0.840151 0.00741204 0.872856 0.021812C0.905561 0.0362121 0.935267 0.0573169 0.960274 0.0839177L4.00007 3.30995L7.03987 0.0839177C7.0649 0.05736 7.09461 0.0362931 7.12731 0.0219202C7.16001 0.00754724 7.19506 0.000149552 7.23046 0.000149552C7.26586 0.000149552 7.30091 0.00754724 7.33361 0.0219202C7.36631 0.0362931 7.39603 0.05736 7.42105 0.0839177C7.44608 0.110475 7.46594 0.142004 7.47948 0.176703C7.49303 0.211403 7.5 0.248594 7.5 0.286152C7.5 0.32371 7.49303 0.360901 7.47948 0.3956C7.46594 0.4303 7.44608 0.461828 7.42105 0.488386L4.19066 3.91608C4.16566 3.94268 4.13595 3.96379 4.10325 3.97819C4.07054 3.99259 4.03548 4 4.00007 4C3.96466 4 3.9296 3.99259 3.8969 3.97819C3.86419 3.96379 3.83448 3.94268 3.80948 3.91608L0.579087 0.488386C0.554018 0.461852 0.534128 0.430332 0.520557 0.395629C0.506986 0.360926 0.5 0.323724 0.5 0.286152C0.5 0.24858 0.506986 0.211377 0.520557 0.176675C0.534128 0.141972 0.554018 0.110451 0.579087 0.0839177Z" fill="#0C093C"/>
</svg>
