<svg width="32" height="24" viewBox="0 0 32 24" fill="none" xmlns="http://www.w3.org/2000/svg">
<path fill-rule="evenodd" clip-rule="evenodd" d="M12 0C12.2055 8.74396e-05 12.406 0.0634923 12.5742 0.181587C12.7424 0.299681 12.8701 0.46673 12.94 0.66L20 20.072L23.06 11.656C23.1305 11.4635 23.2585 11.2973 23.4267 11.1799C23.5948 11.0626 23.795 10.9998 24 11H31C31.2652 11 31.5196 11.1054 31.7071 11.2929C31.8946 11.4804 32 11.7348 32 12C32 12.2652 31.8946 12.5196 31.7071 12.7071C31.5196 12.8946 31.2652 13 31 13H24.7L20.94 23.34C20.8699 23.5331 20.7421 23.6998 20.5739 23.8177C20.4058 23.9356 20.2054 23.9988 20 23.9988C19.7946 23.9988 19.5942 23.9356 19.4261 23.8177C19.2579 23.6998 19.1301 23.5331 19.06 23.34L12 3.928L8.94 12.342C8.8698 12.5349 8.74193 12.7015 8.57376 12.8192C8.40559 12.9369 8.20527 13.0001 8 13H1C0.734784 13 0.48043 12.8946 0.292893 12.7071C0.105357 12.5196 0 12.2652 0 12C0 11.7348 0.105357 11.4804 0.292893 11.2929C0.48043 11.1054 0.734784 11 1 11H7.3L11.06 0.66C11.1299 0.46673 11.2576 0.299681 11.4258 0.181587C11.594 0.0634923 11.7945 8.74396e-05 12 0Z" fill="#7758D9"/>
</svg>
