<svg width="13" height="13" viewBox="0 0 13 13" fill="none" xmlns="http://www.w3.org/2000/svg">
<path d="M9.62997 7.99593C10.3713 6.98419 10.7033 5.72982 10.5596 4.48376C10.4159 3.2377 9.80713 2.09184 8.855 1.27544C7.90287 0.459043 6.67764 0.0323028 5.42442 0.0805981C4.17121 0.128893 2.98244 0.648663 2.09594 1.53592C1.20944 2.42317 0.690598 3.61248 0.643206 4.86591C0.595814 6.11933 1.02337 7.34444 1.84034 8.29612C2.6573 9.2478 3.80343 9.85588 5.04942 9.99869C6.29541 10.1415 7.54937 9.80853 8.56043 9.06638H8.55966C8.58263 9.09701 8.60713 9.12611 8.63469 9.15444L11.5822 12.1024C11.7258 12.2461 11.9205 12.3268 12.1236 12.3269C12.3267 12.327 12.5215 12.2464 12.6652 12.1028C12.8088 11.9592 12.8896 11.7644 12.8896 11.5613C12.8897 11.3582 12.8091 11.1634 12.6656 11.0197L9.71801 8.07173C9.69064 8.04402 9.66121 8.01919 9.62997 7.99593ZM9.82749 5.05256C9.82749 5.60561 9.71858 6.15324 9.50696 6.66418C9.29535 7.17513 8.98519 7.63939 8.59418 8.03045C8.20318 8.42151 7.73898 8.73172 7.22811 8.94336C6.71723 9.155 6.16968 9.26393 5.61671 9.26393C5.06374 9.26393 4.51619 9.155 4.00532 8.94336C3.49444 8.73172 3.03025 8.42151 2.63924 8.03045C2.24823 7.63939 1.93807 7.17513 1.72646 6.66418C1.51485 6.15324 1.40593 5.60561 1.40593 5.05256C1.40593 3.93564 1.84957 2.86446 2.63924 2.07467C3.42892 1.28489 4.49994 0.84119 5.61671 0.84119C6.73348 0.84119 7.80451 1.28489 8.59418 2.07467C9.38386 2.86446 9.82749 3.93564 9.82749 5.05256Z" fill="black" fill-opacity="0.7"/>
</svg>
