<svg width="17" height="16" viewBox="0 0 17 16" fill="none" xmlns="http://www.w3.org/2000/svg"> <g clip-path="url(#clip0_238_2307)"> <path fill-rule="evenodd" clip-rule="evenodd" d="M3.4999 11.2C3.54648 11.1379 3.60687 11.0875 3.6763 11.0528C3.74572 11.0181 3.82228 11 3.8999 11H6.3999C6.53251 11 6.65969 11.0527 6.75346 11.1464C6.84722 11.2402 6.8999 11.3674 6.8999 11.5C6.8999 11.6326 6.84722 11.7598 6.75346 11.8536C6.65969 11.9473 6.53251 12 6.3999 12H4.1499L1.8999 15H14.8999L12.6499 12H10.3999C10.2673 12 10.1401 11.9473 10.0463 11.8536C9.95258 11.7598 9.8999 11.6326 9.8999 11.5C9.8999 11.3674 9.95258 11.2402 10.0463 11.1464C10.1401 11.0527 10.2673 11 10.3999 11H12.8999C12.9775 11 13.0541 11.0181 13.1235 11.0528C13.1929 11.0875 13.2533 11.1379 13.2999 11.2L16.2999 15.2C16.3556 15.2743 16.3895 15.3626 16.3979 15.4551C16.4062 15.5476 16.3886 15.6406 16.3471 15.7236C16.3056 15.8067 16.2418 15.8765 16.1628 15.9253C16.0838 15.9741 15.9928 16 15.8999 16H0.899903C0.807047 16 0.716025 15.9741 0.637037 15.9253C0.558049 15.8765 0.494215 15.8067 0.452689 15.7236C0.411163 15.6406 0.393584 15.5476 0.401923 15.4551C0.410262 15.3626 0.444189 15.2743 0.499903 15.2L3.4999 11.2Z" fill="#7758D9"/> <path fill-rule="evenodd" clip-rule="evenodd" d="M8.3999 1.00012C8.00594 1.00012 7.61583 1.07771 7.25185 1.22848C6.88788 1.37924 6.55716 1.60022 6.27858 1.8788C6.00001 2.15737 5.77903 2.48809 5.62826 2.85207C5.4775 3.21604 5.3999 3.60615 5.3999 4.00012C5.3999 4.39408 5.4775 4.78419 5.62826 5.14817C5.77903 5.51214 6.00001 5.84286 6.27858 6.12144C6.55716 6.40001 6.88788 6.62099 7.25185 6.77176C7.61583 6.92252 8.00594 7.00012 8.3999 7.00012C9.19555 7.00012 9.95861 6.68405 10.5212 6.12144C11.0838 5.55883 11.3999 4.79577 11.3999 4.00012C11.3999 3.20447 11.0838 2.44141 10.5212 1.8788C9.95861 1.31619 9.19555 1.00012 8.3999 1.00012ZM4.3999 4.00012C4.39997 3.23034 4.62216 2.47694 5.0398 1.83031C5.45743 1.18368 6.05278 0.671289 6.75441 0.354624C7.45603 0.0379591 8.23412 -0.0695301 8.99532 0.0450543C9.75652 0.159639 10.4685 0.491429 11.0458 1.00061C11.6231 1.5098 12.0412 2.17475 12.25 2.91567C12.4588 3.6566 12.4493 4.44202 12.2228 5.1777C11.9962 5.91339 11.5622 6.56807 10.9728 7.06321C10.3834 7.55835 9.66364 7.8729 8.8999 7.96912V13.5001C8.8999 13.6327 8.84722 13.7599 8.75346 13.8537C8.65969 13.9474 8.53251 14.0001 8.3999 14.0001C8.26729 14.0001 8.14012 13.9474 8.04635 13.8537C7.95258 13.7599 7.8999 13.6327 7.8999 13.5001V7.97012C6.93287 7.84828 6.04359 7.37755 5.39912 6.64635C4.75464 5.91515 4.39932 4.9748 4.3999 4.00012Z" fill="#7758D9"/> </g> <defs> <clipPath id="clip0_238_2307"> <rect width="16" height="16" fill="white" transform="translate(0.399902)"/> </clipPath> </defs> </svg>