<svg width="20" height="20" viewBox="0 0 20 20" fill="none" xmlns="http://www.w3.org/2000/svg">
<path d="M13.7574 12.8515C14.8164 11.4061 15.2907 9.61417 15.0855 7.83408C14.8802 6.05399 14.0105 4.41706 12.6503 3.25077C11.2901 2.08449 9.53976 1.47486 7.74945 1.54385C5.95915 1.61284 4.2609 2.35537 2.99448 3.62288C1.72805 4.89039 0.986847 6.5894 0.919144 8.38001C0.851442 10.1706 1.46224 11.9208 2.62933 13.2803C3.79643 14.6399 5.43375 15.5085 7.21373 15.7126C8.99372 15.9166 10.7851 15.4409 12.2295 14.3807H12.2284C12.2612 14.4244 12.2962 14.466 12.3356 14.5065L16.5463 18.7179C16.7514 18.9231 17.0296 19.0385 17.3197 19.0386C17.6099 19.0387 17.8882 18.9235 18.0934 18.7184C18.2986 18.5133 18.414 18.235 18.4141 17.9449C18.4142 17.6547 18.299 17.3764 18.0939 17.1711L13.8832 12.9598C13.844 12.9202 13.802 12.8847 13.7574 12.8515ZM14.0396 8.64666C14.0396 9.43672 13.884 10.219 13.5817 10.949C13.2794 11.6789 12.8363 12.3421 12.2777 12.9008C11.7191 13.4594 11.056 13.9026 10.3261 14.2049C9.59632 14.5073 8.81411 14.6629 8.02415 14.6629C7.2342 14.6629 6.45198 14.5073 5.72216 14.2049C4.99234 13.9026 4.3292 13.4594 3.77062 12.9008C3.21204 12.3421 2.76895 11.6789 2.46665 10.949C2.16435 10.219 2.00875 9.43672 2.00875 8.64666C2.00875 7.05105 2.64252 5.52079 3.77062 4.39253C4.89873 3.26426 6.42877 2.63041 8.02415 2.63041C9.61954 2.63041 11.1496 3.26426 12.2777 4.39253C13.4058 5.52079 14.0396 7.05105 14.0396 8.64666Z" fill="#F5F5F6"/>
</svg>
