<svg width="17" height="17" viewBox="0 0 17 17" fill="none" xmlns="http://www.w3.org/2000/svg"> <g clip-path="url(#clip0_1244_12827)"> <path d="M4.25408 1.82781C4.19505 1.75187 4.12053 1.68936 4.03548 1.64443C3.95043 1.5995 3.8568 1.57319 3.7608 1.56723C3.6648 1.56127 3.56863 1.57581 3.47868 1.60987C3.38873 1.64394 3.30705 1.69675 3.23908 1.76481L2.20508 2.79981C1.72208 3.28381 1.54408 3.96881 1.75508 4.56981C2.63082 7.05739 4.05538 9.3159 5.92308 11.1778C7.78501 13.0455 10.0435 14.47 12.5311 15.3458C13.1321 15.5568 13.8171 15.3788 14.3011 14.8958L15.3351 13.8618C15.4031 13.7938 15.456 13.7122 15.49 13.6222C15.5241 13.5323 15.5386 13.4361 15.5327 13.3401C15.5267 13.2441 15.5004 13.1505 15.4555 13.0654C15.4105 12.9804 15.348 12.9058 15.2721 12.8468L12.9651 11.0528C12.884 10.9899 12.7896 10.9462 12.6891 10.9251C12.5886 10.9039 12.4847 10.9059 12.3851 10.9308L10.1951 11.4778C9.90276 11.5509 9.5965 11.547 9.30612 11.4666C9.01575 11.3861 8.75114 11.2319 8.53808 11.0188L6.08208 8.56181C5.86885 8.34884 5.71441 8.08429 5.63379 7.79391C5.55318 7.50352 5.54914 7.19721 5.62208 6.90481L6.17008 4.71481C6.19499 4.6152 6.19695 4.51124 6.17581 4.41077C6.15468 4.3103 6.111 4.21594 6.04808 4.13481L4.25408 1.82781ZM2.48408 1.01081C2.65908 0.835756 2.86931 0.699937 3.10082 0.612368C3.33233 0.524799 3.57982 0.487483 3.82686 0.5029C4.0739 0.518316 4.31483 0.586111 4.53366 0.701783C4.75249 0.817456 4.94421 0.978358 5.09608 1.17381L6.89008 3.47981C7.21908 3.90281 7.33508 4.45381 7.20508 4.97381L6.65808 7.16381C6.6298 7.27724 6.63133 7.39605 6.66252 7.50872C6.6937 7.62138 6.75349 7.72407 6.83608 7.80681L9.29308 10.2638C9.37592 10.3466 9.47877 10.4064 9.59163 10.4376C9.70449 10.4688 9.8235 10.4703 9.93708 10.4418L12.1261 9.89481C12.3827 9.83065 12.6505 9.82566 12.9094 9.88023C13.1682 9.9348 13.4112 10.0475 13.6201 10.2098L15.9261 12.0038C16.7551 12.6488 16.8311 13.8738 16.0891 14.6148L15.0551 15.6488C14.3151 16.3888 13.2091 16.7138 12.1781 16.3508C9.53926 15.4223 7.14335 13.9116 5.16808 11.9308C3.18737 9.95582 1.67669 7.56027 0.74808 4.92181C0.38608 3.89181 0.71108 2.78481 1.45108 2.04481L2.48508 1.01081H2.48408Z" fill="#7758D9"/> </g> <defs> <clipPath id="clip0_1244_12827"> <rect width="16" height="16" fill="white" transform="translate(0.600098 0.5)"/> </clipPath> </defs> </svg>