<svg width="9" height="6" viewBox="0 0 9 6" fill="none" xmlns="http://www.w3.org/2000/svg">
<path fill-rule="evenodd" clip-rule="evenodd" d="M1.07909 1.08392C1.10409 1.05732 1.1338 1.03621 1.16651 1.02181C1.19921 1.00741 1.23427 1 1.26968 1C1.30509 1 1.34015 1.00741 1.37286 1.02181C1.40556 1.03621 1.43527 1.05732 1.46027 1.08392L4.50007 4.30995L7.53987 1.08392C7.5649 1.05736 7.59461 1.03629 7.62731 1.02192C7.66001 1.00755 7.69506 1.00015 7.73046 1.00015C7.76586 1.00015 7.80091 1.00755 7.83361 1.02192C7.86631 1.03629 7.89603 1.05736 7.92105 1.08392C7.94608 1.11048 7.96594 1.142 7.97948 1.1767C7.99303 1.2114 8 1.24859 8 1.28615C8 1.32371 7.99303 1.3609 7.97948 1.3956C7.96594 1.4303 7.94608 1.46183 7.92105 1.48839L4.69066 4.91608C4.66566 4.94268 4.63595 4.96379 4.60325 4.97819C4.57054 4.99259 4.53548 5 4.50007 5C4.46466 5 4.4296 4.99259 4.3969 4.97819C4.36419 4.96379 4.33448 4.94268 4.30948 4.91608L1.07909 1.48839C1.05402 1.46185 1.03413 1.43033 1.02056 1.39563C1.00699 1.36093 1 1.32372 1 1.28615C1 1.24858 1.00699 1.21138 1.02056 1.17667C1.03413 1.14197 1.05402 1.11045 1.07909 1.08392Z" fill="#EBF0EC" fill-opacity="0.8" stroke="#EBF0EC" stroke-opacity="0.8"/>
</svg>
