<svg width="12" height="12" viewBox="0 0 12 12" fill="none" xmlns="http://www.w3.org/2000/svg">
<g clip-path="url(#clip0_359_3226)">
<path fill-rule="evenodd" clip-rule="evenodd" d="M8.87412 1.61863C8.91402 1.65614 8.94568 1.7007 8.96728 1.74976C8.98888 1.79882 9 1.85141 9 1.90452C9 1.95763 8.98888 2.01023 8.96728 2.05928C8.94568 2.10834 8.91402 2.1529 8.87412 2.19041L4.03507 6.75011L8.87412 11.3098C8.91396 11.3473 8.94556 11.3919 8.96712 11.441C8.98868 11.49 8.99978 11.5426 8.99978 11.5957C8.99978 11.6488 8.98868 11.7014 8.96712 11.7504C8.94556 11.7995 8.91396 11.844 8.87412 11.8816C8.83429 11.9191 8.78699 11.9489 8.73494 11.9692C8.6829 11.9895 8.62711 12 8.57077 12C8.51443 12 8.45865 11.9895 8.4066 11.9692C8.35455 11.9489 8.30726 11.9191 8.26742 11.8816L3.12588 7.03599C3.08597 6.99849 3.05432 6.95393 3.03272 6.90487C3.01112 6.85581 3 6.80322 3 6.75011C3 6.69699 3.01112 6.6444 3.03272 6.59534C3.05432 6.54628 3.08597 6.50172 3.12588 6.46422L8.26742 1.61863C8.30722 1.58103 8.3545 1.55119 8.40656 1.53084C8.45861 1.51048 8.51441 1.5 8.57077 1.5C8.62713 1.5 8.68293 1.51048 8.73499 1.53084C8.78704 1.55119 8.83432 1.58103 8.87412 1.61863Z" fill="#0C093C"/>
</g>
<defs>
<clipPath id="clip0_359_3226">
<rect width="12" height="12" fill="white" transform="translate(12) rotate(90)"/>
</clipPath>
</defs>
</svg>
