<svg width="12" height="12" viewBox="0 0 12 12" fill="none" xmlns="http://www.w3.org/2000/svg">
<path fill-rule="evenodd" clip-rule="evenodd" d="M3.12588 10.3814C3.08598 10.3439 3.05432 10.2993 3.03272 10.2502C3.01112 10.2012 3 10.1486 3 10.0955C3 10.0424 3.01112 9.98977 3.03272 9.94072C3.05432 9.89166 3.08598 9.8471 3.12588 9.80959L7.96493 5.24989L3.12588 0.690199C3.08604 0.652656 3.05444 0.608085 3.03288 0.559031C3.01132 0.509979 3.00022 0.457404 3.00022 0.404309C3.00022 0.351214 3.01132 0.29864 3.03288 0.249587C3.05444 0.200534 3.08604 0.155963 3.12588 0.11842C3.16571 0.0808763 3.21301 0.051095 3.26505 0.030777C3.3171 0.010458 3.37289 9.37375e-07 3.42923 9.34912e-07C3.48556 9.3245e-07 3.54135 0.010458 3.5934 0.030777C3.64545 0.051095 3.69274 0.0808763 3.73258 0.11842L8.87412 4.964C8.91402 5.00151 8.94568 5.04607 8.96728 5.09513C8.98888 5.14419 9 5.19678 9 5.24989C9 5.30301 8.98888 5.3556 8.96728 5.40466C8.94568 5.45371 8.91402 5.49827 8.87412 5.53578L3.73258 10.3814C3.69278 10.419 3.6455 10.4488 3.59344 10.4692C3.54139 10.4895 3.48559 10.5 3.42923 10.5C3.37287 10.5 3.31707 10.4895 3.26501 10.4692C3.21296 10.4488 3.16568 10.419 3.12588 10.3814Z" fill="#0C093C"/>
</svg>
