<svg width="14" height="8" viewBox="0 0 14 8" fill="none" xmlns="http://www.w3.org/2000/svg">
<path fill-rule="evenodd" clip-rule="evenodd" d="M13.3536 7.35384C13.3071 7.4004 13.252 7.43735 13.1912 7.46255C13.1305 7.48776 13.0654 7.50073 12.9996 7.50073C12.9338 7.50073 12.8687 7.48776 12.808 7.46255C12.7472 7.43735 12.692 7.4004 12.6456 7.35384L6.9996 1.70684L1.35359 7.35384C1.30711 7.40033 1.25192 7.4372 1.19118 7.46236C1.13044 7.48752 1.06534 7.50047 0.999595 7.50047C0.933851 7.50047 0.868751 7.48752 0.808011 7.46236C0.747272 7.4372 0.692082 7.40033 0.645595 7.35384C0.599107 7.30735 0.56223 7.25216 0.537071 7.19142C0.511912 7.13068 0.498963 7.06558 0.498963 6.99984C0.498963 6.93409 0.511912 6.86899 0.537071 6.80825C0.56223 6.74751 0.599107 6.69233 0.645595 6.64584L6.6456 0.645838C6.69204 0.599275 6.74722 0.562333 6.80796 0.537126C6.86871 0.511919 6.93383 0.498945 6.9996 0.498945C7.06536 0.498945 7.13048 0.511919 7.19123 0.537126C7.25197 0.562333 7.30715 0.599275 7.3536 0.645838L13.3536 6.64584C13.4002 6.69228 13.4371 6.74746 13.4623 6.80821C13.4875 6.86895 13.5005 6.93407 13.5005 6.99984C13.5005 7.06561 13.4875 7.13073 13.4623 7.19147C13.4371 7.25222 13.4002 7.30739 13.3536 7.35384Z" fill="black" stroke="black"/>
</svg>
