<svg width="6" height="11" viewBox="0 0 6 11" fill="none" xmlns="http://www.w3.org/2000/svg">
<path fill-rule="evenodd" clip-rule="evenodd" d="M0.125877 10.8814C0.0859754 10.8439 0.0543181 10.7993 0.0327181 10.7502C0.011118 10.7012 -1.53605e-08 10.6486 -1.76822e-08 10.5955C-2.00038e-08 10.5424 0.011118 10.4898 0.032718 10.4407C0.0543181 10.3917 0.0859754 10.3471 0.125877 10.3096L4.96493 5.74989L0.125876 1.1902C0.0860395 1.15266 0.0544393 1.10808 0.0328799 1.05903C0.0113204 1.00998 0.00022389 0.957404 0.000223887 0.904309C0.000223885 0.851214 0.0113204 0.79864 0.0328798 0.749587C0.0544393 0.700534 0.0860395 0.655963 0.125876 0.61842C0.165713 0.580876 0.213006 0.551095 0.265055 0.530777C0.317104 0.510458 0.37289 0.500001 0.429227 0.500001C0.485565 0.500001 0.541351 0.510458 0.5934 0.530777C0.645449 0.551095 0.692742 0.580876 0.732579 0.61842L5.87412 5.464C5.91402 5.50151 5.94568 5.54607 5.96728 5.59513C5.98888 5.64419 6 5.69678 6 5.74989C6 5.80301 5.98888 5.8556 5.96728 5.90466C5.94568 5.95371 5.91402 5.99827 5.87412 6.03578L0.732579 10.8814C0.692779 10.919 0.645497 10.9488 0.593443 10.9692C0.541389 10.9895 0.485585 11 0.429228 11C0.37287 11 0.317066 10.9895 0.265012 10.9692C0.212958 10.9488 0.165677 10.919 0.125877 10.8814Z" fill="#EBF0EC"/>
</svg>
