<svg width="6" height="11" viewBox="0 0 6 11" fill="none" xmlns="http://www.w3.org/2000/svg">
<path fill-rule="evenodd" clip-rule="evenodd" d="M5.87412 0.118631C5.91402 0.156141 5.94568 0.2007 5.96728 0.249758C5.98888 0.298815 6 0.351407 6 0.404521C6 0.457634 5.98888 0.510226 5.96728 0.559283C5.94568 0.608341 5.91402 0.652901 5.87412 0.69041L1.03507 5.25011L5.87412 9.8098C5.91396 9.84734 5.94556 9.89192 5.96712 9.94097C5.98868 9.99002 5.99978 10.0426 5.99978 10.0957C5.99978 10.1488 5.98868 10.2014 5.96712 10.2504C5.94556 10.2995 5.91396 10.344 5.87412 10.3816C5.83429 10.4191 5.78699 10.4489 5.73494 10.4692C5.6829 10.4895 5.62711 10.5 5.57077 10.5C5.51443 10.5 5.45865 10.4895 5.4066 10.4692C5.35455 10.4489 5.30726 10.4191 5.26742 10.3816L0.125876 5.53599C0.0859749 5.49849 0.0543182 5.45393 0.0327179 5.40487C0.0111177 5.35581 -7.08648e-07 5.30322 -7.06327e-07 5.25011C-7.04005e-07 5.19699 0.0111177 5.1444 0.032718 5.09534C0.0543182 5.04628 0.085975 5.00172 0.125876 4.96422L5.26742 0.118631C5.30722 0.0810267 5.3545 0.0511918 5.40656 0.0308351C5.45861 0.0104784 5.51441 -2.12256e-08 5.57077 -1.87621e-08C5.62713 -1.62987e-08 5.68293 0.0104784 5.73499 0.0308351C5.78704 0.0511918 5.83432 0.0810267 5.87412 0.118631Z" fill="#EBF0EC"/>
</svg>
