<svg width="18" height="17" viewBox="0 0 18 17" fill="none" xmlns="http://www.w3.org/2000/svg"> <g clip-path="url(#clip0_1244_12821)"> <path d="M15.0512 2.82605C14.2718 2.08573 13.3437 1.49879 12.3209 1.09945C11.2981 0.700115 10.201 0.496356 9.09372 0.500049C4.45378 0.500049 0.672348 4.05805 0.668098 8.42605C0.668098 9.82505 1.05697 11.186 1.79116 12.391L0.600098 16.5L5.06685 15.398C6.30254 16.031 7.6869 16.3627 9.09372 16.363H9.09797C13.739 16.363 17.5193 12.805 17.5236 8.43305C17.5247 7.39109 17.3067 6.35924 16.8821 5.39693C16.4576 4.43462 15.836 3.56088 15.0512 2.82605ZM9.09372 15.021C7.83891 15.0214 6.60716 14.7036 5.52797 14.101L5.27297 13.957L2.6231 14.611L3.33072 12.1781L3.16497 11.927C2.46352 10.8774 2.09254 9.66208 2.09504 8.42205C2.09504 4.79605 5.23685 1.83805 9.09797 1.83805C10.0178 1.8365 10.9289 2.00632 11.7787 2.33774C12.6285 2.66916 13.4001 3.15561 14.0492 3.76905C14.7006 4.3801 15.2169 5.10647 15.5685 5.90628C15.9201 6.70609 16.1 7.56349 16.0977 8.42905C16.0935 12.068 12.9517 15.021 9.09372 15.021ZM12.9347 10.087C12.7253 9.98805 11.6915 9.50905 11.4971 9.44105C11.3037 9.37605 11.1624 9.34205 11.0243 9.54005C10.883 9.73705 10.4792 10.186 10.3581 10.315C10.237 10.448 10.1116 10.463 9.90122 10.365C9.69191 10.265 9.01297 10.057 8.20972 9.38005C7.58285 8.85505 7.16316 8.20505 7.03779 8.00805C6.91666 7.81005 7.0261 7.70405 7.13129 7.60505C7.22372 7.51705 7.3406 7.37305 7.44579 7.25905C7.55203 7.14505 7.5871 7.06105 7.65616 6.92905C7.72522 6.79505 7.69229 6.68105 7.64022 6.58205C7.5871 6.48305 7.16741 5.50605 6.98997 5.11205C6.81997 4.72305 6.64678 4.77705 6.51716 4.77205C6.39603 4.76505 6.25472 4.76505 6.11341 4.76505C6.0067 4.76755 5.90168 4.79078 5.80496 4.83328C5.70824 4.87579 5.62189 4.93665 5.55135 5.01205C5.35797 5.21005 4.81716 5.68905 4.81716 6.66605C4.81716 7.64305 5.57154 8.58205 5.67778 8.71505C5.78191 8.84805 7.15891 10.847 9.27222 11.707C9.7716 11.912 10.1647 12.033 10.4718 12.125C10.9765 12.2771 11.4323 12.254 11.7957 12.205C12.1994 12.147 13.0398 11.725 13.2173 11.262C13.3915 10.798 13.3915 10.4021 13.3384 10.319C13.2863 10.2351 13.145 10.186 12.9347 10.087Z" fill="#7758D9"/> </g> <defs> <clipPath id="clip0_1244_12821"> <rect width="17" height="16" fill="white" transform="translate(0.600098 0.5)"/> </clipPath> </defs> </svg>
