<svg width="182" height="80" viewBox="0 0 182 80" fill="none" xmlns="http://www.w3.org/2000/svg">
<g clip-path="url(#clip0_238_2193)">
<path d="M179.7 16.4C178.3 15 176.4 14.1 173.9 13.6L164.7 12.1C162.3 11.5 161.1 10.4 161.1 8.79995C161.1 8.59995 161.1 8.39995 161.2 8.29995C161.5 6.79995 162.9 5.79995 164.4 5.79995H170.2C172.4 5.79995 174.5 7.19995 175.2 9.29995C175.3 9.49995 175.3 9.69995 175.3 9.79995L181.3 8.59995C180.7 6.09995 179.3 3.99995 177.1 2.49995C174.8 0.899951 171.1 0.199951 167.7 0.199951C163.9 0.199951 159.8 1.09995 157.6 2.99995C155.7 4.59995 154.6 6.99995 154.7 9.49995C154.7 13.6 157.5 16.2999 162.9 17.4L171.5 18.7C174.2 19.3 175.6 20.5 175.6 22.2C175.6 23.4 175.1 24.2999 174 25C172.9 25.7 171.5 25.6 169.7 25.6C167.6 25.6 163.8 25.5999 162.5 24.7999C161.1 24 160.4 22.7 160.2 21.1L153.9 22.4C154.3 25.1999 155.7 27.4 158.2 28.9C160.7 30.4 164.4 31.1 168 31.1C171.9 31.1 176.2 30.3 178.5 28.6C180.8 26.9 182 24.6 182 21.6C181.8 19.5 181.1 17.7999 179.7 16.4Z" fill="white"/>
<path d="M73.5 15.1C73.3 10.8 71.8 7.29998 68.9 4.49998C65.8 1.59998 62 0.0999756 57.4 0.0999756C52.9 0.0999756 49 1.59998 45.9 4.49998C42.8 7.39998 41.2 11.2 41.2 15.8C41.2 20.4 42.8 24.2 45.9 27.1C49 30 52.9 31.5 57.4 31.5C61.9 31.5 65.7 30 68.8 27.1C70.2 25.8 71.2 24.4 72 22.8L66.5 21.3C65.5 23.9 63 25.6 60.1 25.6H54.9C51 25.6 48 22.5 48 18.7V17.6H73.4L73.5 15.1ZM47.9 12.9C47.9 8.99998 51 5.99998 54.8 5.99998H60C63.9 5.99998 67 9.09997 67 12.9V13.2H47.9V12.9Z" fill="white"/>
<path d="M91.5 5.39995V1.39995H85.5V31.2999H91.5V12.7C91.5 8.89995 93.4 7.19995 98.5 7.19995H104.9V1.19995H99.3C94 1.19995 92.1 3.99995 91.5 5.39995Z" fill="white"/>
<path d="M18.8 24.9H15.3L6.5 1.19995H0L9.1 25.5C10.3 28.9 11.3 31.2 11.3 31.2H23.2C23.2 31.2 23.9 28.9 25.1 25.4L33.4 1.29995H27L18.8 24.9Z" fill="white"/>
<path d="M135.1 26.9H122.9V32.7H135.1V26.9Z" fill="#0C093C"/>
<path d="M141.25 16.3902L135.15 26.9554L140.172 29.8554L146.272 19.2902L141.25 16.3902Z" fill="#0C093C"/>
<path d="M116.857 16.3618L111.834 19.2618L117.934 29.827L122.957 26.927L116.857 16.3618Z" fill="#0C093C"/>
<path d="M135.1 0H122.9V5.8H135.1V0Z" fill="#0C093C"/>
<path d="M140.147 2.88235L135.124 5.78235L141.224 16.3475L146.247 13.4475L140.147 2.88235Z" fill="#0C093C"/>
<path d="M117.909 2.87609L111.809 13.4413L116.831 16.3413L122.931 5.77609L117.909 2.87609Z" fill="#0C093C"/>
</g>
<defs>
<clipPath id="clip0_238_2193">
<rect width="181.8" height="79.5" fill="white"/>
</clipPath>
</defs>
</svg>
